<?xml version="1.0" standalone="no"?>
<svg xmlns:xlink="http://www.w3.org/1999/xlink" id="wave" style="transform:rotate(180deg); transition: 0.3s" viewBox="0 0 1440 490" version="1.1" xmlns="http://www.w3.org/2000/svg"><defs><linearGradient id="sw-gradient-0" x1="0" x2="0" y1="1" y2="0"><stop stop-color="rgba(9, 21, 64, 1)" offset="0%"/><stop stop-color="rgba(9, 21, 64, 1)" offset="100%"/></linearGradient></defs><path style="transform:translate(0, 0px); opacity:1" fill="url(#sw-gradient-0)" d="M0,147L40,130.7C80,114,160,82,240,81.7C320,82,400,114,480,155.2C560,196,640,245,720,261.3C800,278,880,261,960,212.3C1040,163,1120,82,1200,40.8C1280,0,1360,0,1440,24.5C1520,49,1600,98,1680,98C1760,98,1840,49,1920,57.2C2000,65,2080,131,2160,155.2C2240,180,2320,163,2400,163.3C2480,163,2560,180,2640,187.8C2720,196,2800,196,2880,220.5C2960,245,3040,294,3120,310.3C3200,327,3280,310,3360,294C3440,278,3520,261,3600,212.3C3680,163,3760,82,3840,73.5C3920,65,4000,131,4080,196C4160,261,4240,327,4320,302.2C4400,278,4480,163,4560,106.2C4640,49,4720,49,4800,57.2C4880,65,4960,82,5040,147C5120,212,5200,327,5280,310.3C5360,294,5440,147,5520,122.5C5600,98,5680,196,5720,245L5760,294L5760,490L5720,490C5680,490,5600,490,5520,490C5440,490,5360,490,5280,490C5200,490,5120,490,5040,490C4960,490,4880,490,4800,490C4720,490,4640,490,4560,490C4480,490,4400,490,4320,490C4240,490,4160,490,4080,490C4000,490,3920,490,3840,490C3760,490,3680,490,3600,490C3520,490,3440,490,3360,490C3280,490,3200,490,3120,490C3040,490,2960,490,2880,490C2800,490,2720,490,2640,490C2560,490,2480,490,2400,490C2320,490,2240,490,2160,490C2080,490,2000,490,1920,490C1840,490,1760,490,1680,490C1600,490,1520,490,1440,490C1360,490,1280,490,1200,490C1120,490,1040,490,960,490C880,490,800,490,720,490C640,490,560,490,480,490C400,490,320,490,240,490C160,490,80,490,40,490L0,490Z"/></svg>